<?xml version="1.0" encoding="utf-8"?>
<!-- Generator: Adobe Illustrator 23.0.0, SVG Export Plug-In . SVG Version: 6.00 Build 0)  -->
<svg version="1.1" id="图层_1" xmlns="http://www.w3.org/2000/svg" xmlns:xlink="http://www.w3.org/1999/xlink" x="0px" y="0px"
	 viewBox="0 0 35 35" style="enable-background:new 0 0 35 35;" xml:space="preserve">
<style type="text/css">
	.st0{fill:#3FCF56;}
	.st1{fill:#FFFFFF;}
</style>
<path class="st0" d="M0,17.5C0,27.2,7.8,35,17.5,35C27.2,35,35,27.2,35,17.5c0,0,0,0,0,0C35,7.8,27.2,0,17.5,0S0,7.8,0,17.5z"/>
<path class="st1" d="M21.4,14c0.2,0,0.5,0,0.7,0c-0.7-3-3.9-5.3-7.6-5.3c-4.1,0-7.5,2.8-7.5,6.4c0,2.1,1.1,3.8,3,5.1l-0.8,2.3
	l2.6-1.3c0.9,0.2,1.7,0.4,2.6,0.4c0.2,0,0.5,0,0.7,0c-0.2-0.5-0.2-1-0.2-1.6C15,16.7,17.8,14,21.4,14z M17.4,12
	c0.6,0,0.9,0.4,0.9,0.9c0,0.6-0.4,0.9-0.9,0.9c-0.6,0-1.1-0.4-1.1-0.9C16.2,12.4,16.8,12,17.4,12z M12.1,13.9
	c-0.6,0-1.1-0.4-1.1-0.9c0-0.6,0.6-0.9,1.1-0.9c0.6,0,0.9,0.4,0.9,0.9C13,13.5,12.7,13.9,12.1,13.9z"/>
<path class="st1" d="M28.3,19.9c0-3-3-5.5-6.4-5.5c-3.6,0-6.4,2.5-6.4,5.5c0,3,2.8,5.5,6.4,5.5c0.8,0,1.5-0.2,2.3-0.4l2.1,1.1
	l-0.6-1.9C27.2,23.1,28.3,21.6,28.3,19.9z M19.8,19c-0.4,0-0.8-0.4-0.8-0.8c0-0.4,0.4-0.8,0.8-0.8c0.6,0,0.9,0.4,0.9,0.8
	C20.8,18.6,20.4,19,19.8,19z M24,19c-0.4,0-0.7-0.4-0.7-0.8c0-0.4,0.4-0.8,0.7-0.8c0.6,0,0.9,0.4,0.9,0.8C24.9,18.6,24.5,19,24,19z"
	/>
</svg>
